<svg width="32" height="32" viewBox="0 0 32 32" fill="none" xmlns="http://www.w3.org/2000/svg">
<g clip-path="url(#clip0_11_62)">
<path d="M16 32C24.8366 32 32 24.8366 32 16C32 7.16344 24.8366 0 16 0C7.16344 0 0 7.16344 0 16C0 24.8366 7.16344 32 16 32Z" fill="#E7E9EB"/>
<path d="M11 13.1396H13.4609C13.4609 11.918 14.4189 11.0654 15.6846 11.0654C16.8271 11.0654 17.6094 11.8389 17.6094 12.8584C17.6094 13.7373 17.249 14.3438 15.6406 15.8906L11.1494 20.1445V21.9639H20.3691V19.8545H14.6211V19.8018L17.2842 17.2529C19.4287 15.2051 20.1934 14.2471 20.1934 12.6914C20.1934 10.582 18.4004 9 15.6846 9C12.9336 9 11 10.6963 11 13.1396Z" fill="#0B1F35"/>
</g>
<defs>
<clipPath id="clip0_11_62">
<rect width="32" height="32" fill="white"/>
</clipPath>
</defs>
</svg>
